<svg height="512" viewBox="0 0 512 512" width="512" xmlns="http://www.w3.org/2000/svg"><rect fill="#aac3d7" height="136" rx="16" width="384" x="40" y="188"/><rect fill="#d7e6e6" height="112" rx="16" width="384" x="40" y="188"/><rect fill="#3c3c3c" height="80" rx="8" width="40" x="88" y="204"/><path d="m128 232a10.667 10.667 0 0 1 -10.667-10.667v-17.333h-18.666v17.333a10.667 10.667 0 0 1 -10.667 10.667v24a10.667 10.667 0 0 1 10.667 10.667v17.333h18.666v-17.333a10.667 10.667 0 0 1 10.667-10.667z" fill="#555"/><path d="m128 230.667h244a4 4 0 0 1 4 4v18.667a4 4 0 0 1 -4 4h-244a0 0 0 0 1 0 0v-26.667a0 0 0 0 1 0 0z" fill="#784119"/><path d="m136 230.667h236a4 4 0 0 1 4 4v9.333a0 0 0 0 1 0 0h-236a4 4 0 0 1 -4-4v-9.333a0 0 0 0 1 0 0z" fill="#a55528"/><rect fill="#aac3d7" height="136" rx="16" width="384" x="40" y="348"/><rect fill="#d7e6e6" height="112" rx="16" width="384" x="40" y="348"/><path d="m189.333 388h154.667v32h-154.667z" fill="#555"/><path d="m189.333 396h154.667v8h-154.667z" fill="#828787"/><path d="m120 452a48.054 48.054 0 0 1 -48-48v-16h32v16a16 16 0 0 0 32 0 16 16 0 0 1 16-16h37.333v32h-24.075a48.082 48.082 0 0 1 -45.258 32z" fill="#e13741"/><path d="m94.633 366.733-6.633 13.267-6.633-13.267a4.946 4.946 0 0 0 -4.423-2.733 4.945 4.945 0 0 0 -4.944 4.944v19.056h32v-19.056a4.945 4.945 0 0 0 -4.944-4.944 4.946 4.946 0 0 0 -4.423 2.733z" fill="#ff7373"/><path d="m152 396h33.333a4 4 0 0 1 4 4 4 4 0 0 1 -4 4h-33.333a0 0 0 0 1 0 0v-8a0 0 0 0 1 0 0z" fill="#ff7373" transform="matrix(-1 0 0 -1 341.333 800)"/><rect fill="#aac3d7" height="136" rx="16" width="384" x="40" y="28"/><rect fill="#d7e6e6" height="112" rx="16" width="384" x="40" y="28"/><g fill="#fab991"><path d="m440 308h32a0 0 0 0 1 0 0v16a16 16 0 0 1 -16 16 16 16 0 0 1 -16-16v-16a0 0 0 0 1 0 0z" transform="matrix(-1 0 0 -1 912 648)"/><path d="m408 308h32a0 0 0 0 1 0 0v16a16 16 0 0 1 -16 16 16 16 0 0 1 -16-16v-16a0 0 0 0 1 0 0z" transform="matrix(-1 0 0 -1 848 648)"/><path d="m376 308h32a0 0 0 0 1 0 0v16a16 16 0 0 1 -16 16 16 16 0 0 1 -16-16v-16a0 0 0 0 1 0 0z" transform="matrix(-1 0 0 -1 784 648)"/><path d="m344 236h32a0 0 0 0 1 0 0v88a16 16 0 0 1 -16 16 16 16 0 0 1 -16-16v-88a0 0 0 0 1 0 0z" transform="matrix(-1 0 0 -1 720 576)"/></g><path d="m344 340v120h112v-24a16 16 0 0 0 16-16v-80z" fill="#f0915a"/><path d="m344 436h56a0 0 0 0 1 0 0v24a0 0 0 0 1 0 0h-32a24 24 0 0 1 -24-24 0 0 0 0 1 0 0z" fill="#fab991" transform="matrix(-1 0 0 -1 744 896)"/><path d="m312 340a32 32 0 0 1 32 32v56a8 8 0 0 1 -8 8 24 24 0 0 1 -24-24v-72a0 0 0 0 1 0 0z" fill="#fab991" transform="matrix(-1 0 0 -1 656 776)"/><path d="m344 460h112a16 16 0 0 1 16 16v8a0 0 0 0 1 0 0h-144a0 0 0 0 1 0 0v-8a16 16 0 0 1 16-16z" fill="#555a6e"/><path d="m400 460h56a16 16 0 0 1 16 16v8a0 0 0 0 1 0 0h-72a0 0 0 0 1 0 0v-24a0 0 0 0 1 0 0z" fill="#463c4b"/><circle cx="360" cy="252" fill="#f0915a" r="8"/><path d="m312 348a18.667 18.667 0 0 1 18.667 18.667 5.333 5.333 0 0 1 -5.334 5.333h-13.333a0 0 0 0 1 0 0v-24a0 0 0 0 1 0 0z" fill="#f0915a"/><path d="m234.79 116h-130.79a32 32 0 0 1 -32-32 32 32 0 0 1 32-32h130.79a180 180 0 0 1 56.921 9.237l20.289 6.763v32l-20.289 6.763a180 180 0 0 1 -56.921 9.237z" fill="#faa51e"/><path d="m312 68h48v32h-48z" fill="#555"/><path d="m312 84h48v16h-48z" fill="#3c3c3c"/><rect fill="#faa51e" height="64" rx="12" width="24" x="360" y="52"/><path d="m360 84h24a0 0 0 0 1 0 0v20a12 12 0 0 1 -12 12 12 12 0 0 1 -12-12v-20a0 0 0 0 1 0 0z" fill="#f06423"/><path d="m312 84h-240a32 32 0 0 0 32 32h130.79a180 180 0 0 0 56.921-9.237l20.289-6.763z" fill="#f06423"/><rect fill="#ffc33c" height="8" rx="4" width="152" x="96" y="60"/></svg>